<svg width="373" height="68" viewBox="0 0 373 68" fill="none" xmlns="http://www.w3.org/2000/svg">
<path d="M51.25 55.25L51.9375 48.7812C51.9375 46.1562 50.8646 44.1562 48.7188 42.7812C46.5938 41.3854 44.3542 40.7708 42 40.9375C39.6458 41.0833 38 41.875 37.0625 43.3125C36.5833 44 36.3438 44.8125 36.3438 45.75L36.1875 54.125C36.1875 55.2708 36.3646 56.9688 36.7188 59.2188C37.0729 61.4896 37.25 63.1979 37.25 64.3438C37.25 66.3646 36.6771 67.375 35.5312 67.375C34.3854 67.375 33.8125 66.3958 33.8125 64.4375C33.8125 63.1458 34 61.2917 34.375 58.875C34.75 56.4583 34.9583 54.625 35 53.375C35.0625 52.125 35.0938 49.4583 35.0938 45.375C35.0938 44.2917 34.7604 43.0417 34.0938 41.625C33.4271 40.2083 32.375 38.2604 30.9375 35.7812C29.5 33.3021 28.3229 31.1146 27.4062 29.2188L26.4688 28.6875C25.9688 29.6042 25.0833 30.0625 23.8125 30.0625L21.1875 30.1562C19.3958 30.1562 18.0521 29.7188 17.1562 28.8438L16.5 29.4688C16.5625 30.2396 16.5938 31.8854 16.5938 34.4062L16.5625 42.0625C16.5625 44.3542 16.6042 46.0417 16.6875 47.125L17.2812 51.7188C17.2812 52.5729 16.9896 53 16.4062 53C15.8229 53 15.5312 52.6042 15.5312 51.8125L16.0312 47.9375C16.0312 47 15.75 46.25 15.1875 45.6875C14.6458 45.1458 13.9271 44.875 13.0312 44.875C12.1562 44.875 11.375 45.2604 10.6875 46.0312C10.0208 46.8229 9.6875 47.8438 9.6875 49.0938C9.6875 50.3438 9.91667 52.0312 10.375 54.1562C10.8333 56.3021 11.0625 57.8438 11.0625 58.7812C11.0625 60.7396 10.3646 61.7188 8.96875 61.7188C7.57292 61.7188 6.875 60.7604 6.875 58.8438C6.875 57.9479 7.07292 56.3854 7.46875 54.1562C7.88542 51.9271 8.09375 50.1562 8.09375 48.8438C8.09375 47.5312 7.79167 46.4479 7.1875 45.5938C6.58333 44.7604 5.89583 44.3438 5.125 44.3438C4.35417 44.3438 3.69792 44.6042 3.15625 45.125C2.61458 45.6667 2.34375 46.3333 2.34375 47.125L3.1875 54.5312C3.1875 55.8021 2.71875 56.4375 1.78125 56.4375C0.84375 56.4375 0.375 55.7917 0.375 54.5C0.375 53.75 0.572917 52.4375 0.96875 50.5625C1.36458 48.7083 1.55208 47.2604 1.53125 46.2188C1.51042 45.1771 1.5 31.6979 1.5 5.78125C1.5 4.48958 1.10417 3.45833 0.3125 2.6875L0.9375 2.0625C1.75 2.85417 2.78125 3.25 4.03125 3.25H32.0312C36.4062 3.25 39.3438 3.38542 40.8438 3.65625C42.3646 3.90625 43.6875 4.17708 44.8125 4.46875C45.9583 4.76042 46.9167 5.125 47.6875 5.5625C48.4792 5.97917 49.2708 6.51042 50.0625 7.15625C50.875 7.78125 51.5208 8.5 52 9.3125C53.1042 11.1667 53.6562 13.1354 53.6562 15.2188C53.6562 17.3021 53.4896 19.0104 53.1562 20.3438C52.8438 21.6562 52.3125 22.8958 51.5625 24.0625C49.9375 26.5833 47.0833 27.8438 43 27.8438L42.75 28.5625C44.0625 29.0833 44.9375 29.8021 45.375 30.7188C47.2083 34.7188 48.5625 37.2604 49.4375 38.3438C50.3125 39.4062 51.125 40.2604 51.875 40.9062C52.625 41.5521 53.6979 42.2083 55.0938 42.875C56.4896 43.5417 57.3333 43.9792 57.625 44.1875C57.9167 44.375 58.0625 44.5312 58.0625 44.6562C58.0625 46.7396 58.3438 49.4167 58.9062 52.6875C59.4688 55.9583 59.75 58.0625 59.75 59C59.75 59.9375 59.7083 60.6146 59.625 61.0312C59.5625 61.4479 59.4062 61.8542 59.1562 62.25C58.9062 62.6667 58.5417 62.875 58.0625 62.875C57.5833 62.875 57.2188 62.5312 56.9688 61.8438C56.7396 61.1562 56.625 60.3125 56.625 59.3125C56.625 58.3125 56.7604 56.5208 57.0312 53.9375C57.3021 51.375 57.4375 49.4375 57.4375 48.125C57.4375 45.5208 56.5938 44.2188 54.9062 44.2188C54.0729 44.2188 53.4479 44.3646 53.0312 44.6562C52.6354 44.9479 52.4375 45.5417 52.4375 46.4375C52.4375 47.3542 52.625 48.8021 53 50.7812C53.375 52.7604 53.5625 54.25 53.5625 55.25C53.5625 56.2708 53.1771 56.7812 52.4062 56.7812C51.6354 56.7812 51.25 56.2708 51.25 55.25ZM30.4375 13.625L23.0625 13.8438C20.0417 13.8438 18.0729 13.3958 17.1562 12.5L16.5 13.0938C17.3333 13.9062 17.75 14.9479 17.75 16.2188V18.3125C17.75 19.5625 17.3333 20.6042 16.5 21.4375L17.1562 22.0625C18.0521 21.1458 19.9062 20.6875 22.7188 20.6875L30.625 20.9688C32.7292 20.9688 34.3542 20.6979 35.5 20.1562C36.6667 19.5938 37.25 18.5729 37.25 17.0938C37.25 16.1562 36.9271 15.4271 36.2812 14.9062C35.6354 14.3646 34.8542 14.0208 33.9375 13.875C33.0208 13.7083 31.8542 13.625 30.4375 13.625ZM63.0938 47L63.1875 51.9688C63.1875 52.9688 63.0312 53.7188 62.7188 54.2188C62.4062 54.7396 62.0312 55 61.5938 55C60.7188 55 60.2812 54.1562 60.2812 52.4688C60.2812 50.7812 60.4896 48.9062 60.9062 46.8438C61.3229 44.8021 61.6875 43.3958 62 42.625L77 5.71875C77.2083 5.17708 77.3125 4.64583 77.3125 4.125C77.3125 3.60417 77.1354 3.09375 76.7812 2.59375L77.6562 2.03125C78.2604 2.92708 79.1979 3.375 80.4688 3.375H94.8438C96.0938 3.375 97.0208 2.92708 97.625 2.03125L98.5312 2.59375C98.1771 3.09375 98 3.57292 98 4.03125C98 4.48958 98.125 5.04167 98.375 5.6875L113.812 42.6562C114.292 43.8229 115.031 44.7396 116.031 45.4062L115.656 46C114.635 45.3333 113.5 45 112.25 45H106.125C106.167 45.4583 106.188 45.7812 106.188 45.9688C106.188 46.6562 105.906 47 105.344 47C105.094 47 104.865 46.8958 104.656 46.6875C104.469 46.5 104.375 46.2188 104.375 45.8438C104.375 45.4896 104.396 45.2083 104.438 45H100.656C99.7396 45 99.1458 45.5 98.875 46.5C98.5417 47.7292 98.375 49.1354 98.375 50.7188C98.375 52.3229 98.4792 53.7812 98.6875 55.0938C98.8958 56.4062 99 57.3021 99 57.7812C99 58.2812 98.875 58.6771 98.625 58.9688C98.3958 59.2812 98.1042 59.4375 97.75 59.4375C97.3958 59.4375 97.0938 59.2917 96.8438 59C96.5938 58.7083 96.4688 58.3021 96.4688 57.7812C96.4688 57.2604 96.5938 56.25 96.8438 54.75C97.1146 53.25 97.25 52.125 97.25 51.375V42.5938C97.0417 42.0312 96.9375 41.5104 96.9375 41.0312C96.9375 40.5521 97.125 40.0417 97.5 39.5L96.6875 38.9062C96.0625 39.8021 95.125 40.25 93.875 40.25H81.0312C79.7812 40.25 78.8438 39.8125 78.2188 38.9375L77.4062 39.5C77.8021 40.0625 78 40.5833 78 41.0625C78 41.5417 77.9271 42.0521 77.7812 42.5938V42.625C77.5938 43.3333 77.5 43.875 77.5 44.25C77.5 44.625 77.7083 45.1146 78.125 45.7188L77.3125 46.3125C76.6875 45.4375 75.75 45 74.5 45H63.1875C63.125 45.3958 63.0938 46.0625 63.0938 47ZM84.25 31.5938H90.2188C91.4688 31.5938 92.5938 31.9271 93.5938 32.5938L94 32C93.0208 31.3333 92.3125 30.4062 91.875 29.2188L87.9062 19.0625C87.4479 17.875 87.2083 16.6667 87.1875 15.4375H86.7812C86.7396 16.8125 86.5312 18.0208 86.1562 19.0625L82.5625 29.1875C82.125 30.3958 81.4271 31.3333 80.4688 32L80.875 32.625C81.8542 31.9375 82.9792 31.5938 84.25 31.5938ZM104.531 55.3438C104.531 53.9062 104.802 52.1042 105.344 49.9375C105.948 52.4375 106.25 54.0625 106.25 54.8125C106.25 55.9167 105.958 56.4688 105.375 56.4688C104.812 56.4688 104.531 56.0938 104.531 55.3438ZM138.312 56.0625L138.656 49.9375C138.656 46.4375 138.219 44.6875 137.344 44.6875C136.469 44.6875 136.031 45.7917 136.031 48V48.9062C136.031 49.8021 136.229 51.1354 136.625 52.9062C137.042 54.6771 137.25 56.0208 137.25 56.9375C137.25 58.3542 136.719 59.0625 135.656 59.0625C134.615 59.0625 134.094 58.3542 134.094 56.9375C134.094 55.9792 134.312 54.5833 134.75 52.75C135.188 50.9167 135.406 49.5208 135.406 48.5625L135.344 35.8125C135.344 35.1667 135.427 34.6667 135.594 34.3125C135.781 33.9583 136.156 33.6979 136.719 33.5312L136.406 32.3438C136.115 32.4271 135.854 32.4688 135.625 32.4688C135.417 32.4688 135.198 32.3958 134.969 32.25C134.698 32.0625 134.385 31.6875 134.031 31.125L118.188 5.3125C117.562 4.29167 116.708 3.45833 115.625 2.8125L115.906 2.28125C116.948 2.86458 118.125 3.15625 119.438 3.15625L132.031 3.09375C133.281 3.09375 134.167 2.64583 134.688 1.75L135.656 2.28125C135.385 2.78125 135.25 3.33333 135.25 3.9375C135.25 4.52083 135.667 5.53125 136.5 6.96875C137.354 8.40625 138.281 9.80208 139.281 11.1562C140.302 12.5104 141.229 14.0104 142.062 15.6562C142.917 17.3021 143.344 18.7292 143.344 19.9375H144V19.6875C144 17.7292 145.354 14.875 148.062 11.125C150.771 7.375 152.125 4.86458 152.125 3.59375C152.125 3.26042 151.979 2.82292 151.688 2.28125L152.656 1.75C153.177 2.64583 154.073 3.09375 155.344 3.09375L167.188 3.15625C168.479 3.15625 169.646 2.86458 170.688 2.28125L170.969 2.8125C169.844 3.47917 168.979 4.3125 168.375 5.3125L152.375 31.125C151.833 32.0208 151.281 32.4688 150.719 32.4688C150.49 32.4688 150.25 32.4271 150 32.3438L149.625 33.5C150.625 33.8125 151.125 34.8542 151.125 36.625L150.938 40.9688C150.938 42.9688 151.375 44.4062 152.25 45.2812L151.594 45.9062C150.781 45.0938 149.75 44.6875 148.5 44.6875H141.188C139.854 44.6875 139.188 46.5729 139.188 50.3438L139.656 56.1562C139.656 56.8854 139.427 57.25 138.969 57.25C138.531 57.25 138.312 56.8542 138.312 56.0625ZM190.875 53.1875C190.875 53.875 190.562 54.2188 189.938 54.2188C189.625 54.2188 189.375 54.1042 189.188 53.875C189 53.6667 188.906 53.2604 188.906 52.6562C188.906 52.0521 189.052 50.8646 189.344 49.0938C189.635 47.3438 189.781 45.8125 189.781 44.5C189.781 43.1667 189.438 41.7188 188.75 40.1562L173.25 4.5C172.792 3.375 172.052 2.46875 171.031 1.78125L171.438 1.1875C172.417 1.83333 173.542 2.15625 174.812 2.15625H185.719C186.99 2.15625 187.906 1.71875 188.469 0.84375L189.375 1.40625C189.021 1.86458 188.844 2.3125 188.844 2.75C188.844 3.16667 189.125 4.125 189.688 5.625C190.271 7.125 191.031 9.01042 191.969 11.2812C192.906 13.5312 193.781 15.625 194.594 17.5625C195.427 19.5 196.302 21.5312 197.219 23.6562C198.135 25.7812 198.646 26.9688 198.75 27.2188C198.854 26.9688 199.365 25.7812 200.281 23.6562C201.198 21.5312 202.062 19.5 202.875 17.5625C203.708 15.625 204.594 13.5208 205.531 11.25C207.615 6.22917 208.656 3.4375 208.656 2.875C208.656 2.3125 208.49 1.82292 208.156 1.40625L209.031 0.84375C209.594 1.71875 210.51 2.15625 211.781 2.15625H222.719C224.01 2.15625 225.146 1.83333 226.125 1.1875L226.5 1.78125C225.479 2.46875 224.74 3.375 224.281 4.5L208.562 41.6875C208.292 42.3125 208.156 43.8125 208.156 46.1875C208.156 48.5625 208.396 51.1979 208.875 54.0938C209.375 57.0104 209.625 59.1771 209.625 60.5938C209.625 62.6146 208.896 63.625 207.438 63.625C206 63.625 205.281 62.625 205.281 60.625C205.281 59.2708 205.542 57.2604 206.062 54.5938C206.583 51.9479 206.844 49.5208 206.844 47.3125C206.844 45.1042 206.573 44 206.031 44H190.906C190.573 44 190.406 44.7708 190.406 46.3125L190.875 53.1875ZM246.375 61.8438L246.719 53.5312C246.719 50.8438 246.615 49.1458 246.406 48.4375C246.219 47.7292 246.021 47.1042 245.812 46.5625C245.604 46.0208 245.333 45.5833 245 45.25C244.667 44.9167 244.271 44.6042 243.812 44.3125C242.938 43.7292 241.562 43.4375 239.688 43.4375C237.812 43.4375 236.229 44.1979 234.938 45.7188C233.667 47.2396 233.031 49.0625 233.031 51.1875C233.031 51.9792 233.188 53.1562 233.5 54.7188C233.812 56.3021 233.969 57.4896 233.969 58.2812C233.969 59.7812 233.438 60.5312 232.375 60.5312C231.312 60.5312 230.781 59.8021 230.781 58.3438C230.781 57.5312 230.938 56.3125 231.25 54.6875C231.583 53.0625 231.75 51.8333 231.75 51L231.969 42.625V5.90625C231.969 4.61458 231.562 3.57292 230.75 2.78125L231.375 2.125C232.25 2.95833 233.292 3.375 234.5 3.375H245.812C247.062 3.375 248.104 2.95833 248.938 2.125L249.562 2.78125C248.75 3.59375 248.344 4.63542 248.344 5.90625V42.4688C248.344 43.5521 248.229 45.4167 248 48.0625C247.771 50.7292 247.698 52.7812 247.781 54.2188H247.75C248.521 57.6771 248.906 60.3125 248.906 62.125C248.906 63.9375 248.562 64.8438 247.875 64.8438C246.875 64.8438 246.375 63.8438 246.375 61.8438ZM256.531 47L256.625 51.9688C256.625 52.9688 256.469 53.7188 256.156 54.2188C255.844 54.7396 255.469 55 255.031 55C254.156 55 253.719 54.1562 253.719 52.4688C253.719 50.7812 253.927 48.9062 254.344 46.8438C254.76 44.8021 255.125 43.3958 255.438 42.625L270.438 5.71875C270.646 5.17708 270.75 4.64583 270.75 4.125C270.75 3.60417 270.573 3.09375 270.219 2.59375L271.094 2.03125C271.698 2.92708 272.635 3.375 273.906 3.375H288.281C289.531 3.375 290.458 2.92708 291.062 2.03125L291.969 2.59375C291.615 3.09375 291.438 3.57292 291.438 4.03125C291.438 4.48958 291.562 5.04167 291.812 5.6875L307.25 42.6562C307.729 43.8229 308.469 44.7396 309.469 45.4062L309.094 46C308.073 45.3333 306.938 45 305.688 45H299.562C299.604 45.4583 299.625 45.7812 299.625 45.9688C299.625 46.6562 299.344 47 298.781 47C298.531 47 298.302 46.8958 298.094 46.6875C297.906 46.5 297.812 46.2188 297.812 45.8438C297.812 45.4896 297.833 45.2083 297.875 45H294.094C293.177 45 292.583 45.5 292.312 46.5C291.979 47.7292 291.812 49.1354 291.812 50.7188C291.812 52.3229 291.917 53.7812 292.125 55.0938C292.333 56.4062 292.438 57.3021 292.438 57.7812C292.438 58.2812 292.312 58.6771 292.062 58.9688C291.833 59.2812 291.542 59.4375 291.188 59.4375C290.833 59.4375 290.531 59.2917 290.281 59C290.031 58.7083 289.906 58.3021 289.906 57.7812C289.906 57.2604 290.031 56.25 290.281 54.75C290.552 53.25 290.688 52.125 290.688 51.375V42.5938C290.479 42.0312 290.375 41.5104 290.375 41.0312C290.375 40.5521 290.562 40.0417 290.938 39.5L290.125 38.9062C289.5 39.8021 288.562 40.25 287.312 40.25H274.469C273.219 40.25 272.281 39.8125 271.656 38.9375L270.844 39.5C271.24 40.0625 271.438 40.5833 271.438 41.0625C271.438 41.5417 271.365 42.0521 271.219 42.5938V42.625C271.031 43.3333 270.938 43.875 270.938 44.25C270.938 44.625 271.146 45.1146 271.562 45.7188L270.75 46.3125C270.125 45.4375 269.188 45 267.938 45H256.625C256.562 45.3958 256.531 46.0625 256.531 47ZM277.688 31.5938H283.656C284.906 31.5938 286.031 31.9271 287.031 32.5938L287.438 32C286.458 31.3333 285.75 30.4062 285.312 29.2188L281.344 19.0625C280.885 17.875 280.646 16.6667 280.625 15.4375H280.219C280.177 16.8125 279.969 18.0208 279.594 19.0625L276 29.1875C275.562 30.3958 274.865 31.3333 273.906 32L274.312 32.625C275.292 31.9375 276.417 31.5938 277.688 31.5938ZM297.969 55.3438C297.969 53.9062 298.24 52.1042 298.781 49.9375C299.385 52.4375 299.688 54.0625 299.688 54.8125C299.688 55.9167 299.396 56.4688 298.812 56.4688C298.25 56.4688 297.969 56.0938 297.969 55.3438ZM364.5 55.25L365.188 48.7812C365.188 46.1562 364.115 44.1562 361.969 42.7812C359.844 41.3854 357.604 40.7708 355.25 40.9375C352.896 41.0833 351.25 41.875 350.312 43.3125C349.833 44 349.594 44.8125 349.594 45.75L349.438 54.125C349.438 55.2708 349.615 56.9688 349.969 59.2188C350.323 61.4896 350.5 63.1979 350.5 64.3438C350.5 66.3646 349.927 67.375 348.781 67.375C347.635 67.375 347.062 66.3958 347.062 64.4375C347.062 63.1458 347.25 61.2917 347.625 58.875C348 56.4583 348.208 54.625 348.25 53.375C348.312 52.125 348.344 49.4583 348.344 45.375C348.344 44.2917 348.01 43.0417 347.344 41.625C346.677 40.2083 345.625 38.2604 344.188 35.7812C342.75 33.3021 341.573 31.1146 340.656 29.2188L339.719 28.6875C339.219 29.6042 338.333 30.0625 337.062 30.0625L334.438 30.1562C332.646 30.1562 331.302 29.7188 330.406 28.8438L329.75 29.4688C329.812 30.2396 329.844 31.8854 329.844 34.4062L329.812 42.0625C329.812 44.3542 329.854 46.0417 329.938 47.125L330.531 51.7188C330.531 52.5729 330.24 53 329.656 53C329.073 53 328.781 52.6042 328.781 51.8125L329.281 47.9375C329.281 47 329 46.25 328.438 45.6875C327.896 45.1458 327.177 44.875 326.281 44.875C325.406 44.875 324.625 45.2604 323.938 46.0312C323.271 46.8229 322.938 47.8438 322.938 49.0938C322.938 50.3438 323.167 52.0312 323.625 54.1562C324.083 56.3021 324.312 57.8438 324.312 58.7812C324.312 60.7396 323.615 61.7188 322.219 61.7188C320.823 61.7188 320.125 60.7604 320.125 58.8438C320.125 57.9479 320.323 56.3854 320.719 54.1562C321.135 51.9271 321.344 50.1562 321.344 48.8438C321.344 47.5312 321.042 46.4479 320.438 45.5938C319.833 44.7604 319.146 44.3438 318.375 44.3438C317.604 44.3438 316.948 44.6042 316.406 45.125C315.865 45.6667 315.594 46.3333 315.594 47.125L316.438 54.5312C316.438 55.8021 315.969 56.4375 315.031 56.4375C314.094 56.4375 313.625 55.7917 313.625 54.5C313.625 53.75 313.823 52.4375 314.219 50.5625C314.615 48.7083 314.802 47.2604 314.781 46.2188C314.76 45.1771 314.75 31.6979 314.75 5.78125C314.75 4.48958 314.354 3.45833 313.562 2.6875L314.188 2.0625C315 2.85417 316.031 3.25 317.281 3.25H345.281C349.656 3.25 352.594 3.38542 354.094 3.65625C355.615 3.90625 356.938 4.17708 358.062 4.46875C359.208 4.76042 360.167 5.125 360.938 5.5625C361.729 5.97917 362.521 6.51042 363.312 7.15625C364.125 7.78125 364.771 8.5 365.25 9.3125C366.354 11.1667 366.906 13.1354 366.906 15.2188C366.906 17.3021 366.74 19.0104 366.406 20.3438C366.094 21.6562 365.562 22.8958 364.812 24.0625C363.188 26.5833 360.333 27.8438 356.25 27.8438L356 28.5625C357.312 29.0833 358.188 29.8021 358.625 30.7188C360.458 34.7188 361.812 37.2604 362.688 38.3438C363.562 39.4062 364.375 40.2604 365.125 40.9062C365.875 41.5521 366.948 42.2083 368.344 42.875C369.74 43.5417 370.583 43.9792 370.875 44.1875C371.167 44.375 371.312 44.5312 371.312 44.6562C371.312 46.7396 371.594 49.4167 372.156 52.6875C372.719 55.9583 373 58.0625 373 59C373 59.9375 372.958 60.6146 372.875 61.0312C372.812 61.4479 372.656 61.8542 372.406 62.25C372.156 62.6667 371.792 62.875 371.312 62.875C370.833 62.875 370.469 62.5312 370.219 61.8438C369.99 61.1562 369.875 60.3125 369.875 59.3125C369.875 58.3125 370.01 56.5208 370.281 53.9375C370.552 51.375 370.688 49.4375 370.688 48.125C370.688 45.5208 369.844 44.2188 368.156 44.2188C367.323 44.2188 366.698 44.3646 366.281 44.6562C365.885 44.9479 365.688 45.5417 365.688 46.4375C365.688 47.3542 365.875 48.8021 366.25 50.7812C366.625 52.7604 366.812 54.25 366.812 55.25C366.812 56.2708 366.427 56.7812 365.656 56.7812C364.885 56.7812 364.5 56.2708 364.5 55.25ZM343.688 13.625L336.312 13.8438C333.292 13.8438 331.323 13.3958 330.406 12.5L329.75 13.0938C330.583 13.9062 331 14.9479 331 16.2188V18.3125C331 19.5625 330.583 20.6042 329.75 21.4375L330.406 22.0625C331.302 21.1458 333.156 20.6875 335.969 20.6875L343.875 20.9688C345.979 20.9688 347.604 20.6979 348.75 20.1562C349.917 19.5938 350.5 18.5729 350.5 17.0938C350.5 16.1562 350.177 15.4271 349.531 14.9062C348.885 14.3646 348.104 14.0208 347.188 13.875C346.271 13.7083 345.104 13.625 343.688 13.625Z" fill="#333333"/>
</svg>
