<svg width="141" height="26" viewBox="0 0 141 26" fill="none" xmlns="http://www.w3.org/2000/svg">
<path d="M19.7188 20.8438L19.9766 18.418C19.9766 17.4336 19.5742 16.6836 18.7695 16.168C17.9727 15.6445 17.1328 15.4141 16.25 15.4766C15.3672 15.5312 14.75 15.8281 14.3984 16.3672C14.2188 16.625 14.1289 16.9297 14.1289 17.2812L14.0703 20.4219C14.0703 20.8516 14.1367 21.4883 14.2695 22.332C14.4023 23.1836 14.4688 23.8242 14.4688 24.2539C14.4688 25.0117 14.2539 25.3906 13.8242 25.3906C13.3945 25.3906 13.1797 25.0234 13.1797 24.2891C13.1797 23.8047 13.25 23.1094 13.3906 22.2031C13.5312 21.2969 13.6094 20.6094 13.625 20.1406C13.6484 19.6719 13.6602 18.6719 13.6602 17.1406C13.6602 16.7344 13.5352 16.2656 13.2852 15.7344C13.0352 15.2031 12.6406 14.4727 12.1016 13.543C11.5625 12.6133 11.1211 11.793 10.7773 11.082L10.4258 10.8828C10.2383 11.2266 9.90625 11.3984 9.42969 11.3984L8.44531 11.4336C7.77344 11.4336 7.26953 11.2695 6.93359 10.9414L6.6875 11.1758C6.71094 11.4648 6.72266 12.082 6.72266 13.0273L6.71094 15.8984C6.71094 16.7578 6.72656 17.3906 6.75781 17.7969L6.98047 19.5195C6.98047 19.8398 6.87109 20 6.65234 20C6.43359 20 6.32422 19.8516 6.32422 19.5547L6.51172 18.1016C6.51172 17.75 6.40625 17.4688 6.19531 17.2578C5.99219 17.0547 5.72266 16.9531 5.38672 16.9531C5.05859 16.9531 4.76562 17.0977 4.50781 17.3867C4.25781 17.6836 4.13281 18.0664 4.13281 18.5352C4.13281 19.0039 4.21875 19.6367 4.39062 20.4336C4.5625 21.2383 4.64844 21.8164 4.64844 22.168C4.64844 22.9023 4.38672 23.2695 3.86328 23.2695C3.33984 23.2695 3.07812 22.9102 3.07812 22.1914C3.07812 21.8555 3.15234 21.2695 3.30078 20.4336C3.45703 19.5977 3.53516 18.9336 3.53516 18.4414C3.53516 17.9492 3.42188 17.543 3.19531 17.2227C2.96875 16.9102 2.71094 16.7539 2.42188 16.7539C2.13281 16.7539 1.88672 16.8516 1.68359 17.0469C1.48047 17.25 1.37891 17.5 1.37891 17.7969L1.69531 20.5742C1.69531 21.0508 1.51953 21.2891 1.16797 21.2891C0.816406 21.2891 0.640625 21.0469 0.640625 20.5625C0.640625 20.2812 0.714844 19.7891 0.863281 19.0859C1.01172 18.3906 1.08203 17.8477 1.07422 17.457C1.06641 17.0664 1.0625 12.0117 1.0625 2.29297C1.0625 1.80859 0.914062 1.42188 0.617188 1.13281L0.851562 0.898438C1.15625 1.19531 1.54297 1.34375 2.01172 1.34375H12.5117C14.1523 1.34375 15.2539 1.39453 15.8164 1.49609C16.3867 1.58984 16.8828 1.69141 17.3047 1.80078C17.7344 1.91016 18.0938 2.04688 18.3828 2.21094C18.6797 2.36719 18.9766 2.56641 19.2734 2.80859C19.5781 3.04297 19.8203 3.3125 20 3.61719C20.4141 4.3125 20.6211 5.05078 20.6211 5.83203C20.6211 6.61328 20.5586 7.25391 20.4336 7.75391C20.3164 8.24609 20.1172 8.71094 19.8359 9.14844C19.2266 10.0938 18.1562 10.5664 16.625 10.5664L16.5312 10.8359C17.0234 11.0312 17.3516 11.3008 17.5156 11.6445C18.2031 13.1445 18.7109 14.0977 19.0391 14.5039C19.3672 14.9023 19.6719 15.2227 19.9531 15.4648C20.2344 15.707 20.6367 15.9531 21.1602 16.2031C21.6836 16.4531 22 16.6172 22.1094 16.6953C22.2188 16.7656 22.2734 16.8242 22.2734 16.8711C22.2734 17.6523 22.3789 18.6562 22.5898 19.8828C22.8008 21.1094 22.9062 21.8984 22.9062 22.25C22.9062 22.6016 22.8906 22.8555 22.8594 23.0117C22.8359 23.168 22.7773 23.3203 22.6836 23.4688C22.5898 23.625 22.4531 23.7031 22.2734 23.7031C22.0938 23.7031 21.957 23.5742 21.8633 23.3164C21.7773 23.0586 21.7344 22.7422 21.7344 22.3672C21.7344 21.9922 21.7852 21.3203 21.8867 20.3516C21.9883 19.3906 22.0391 18.6641 22.0391 18.1719C22.0391 17.1953 21.7227 16.707 21.0898 16.707C20.7773 16.707 20.543 16.7617 20.3867 16.8711C20.2383 16.9805 20.1641 17.2031 20.1641 17.5391C20.1641 17.8828 20.2344 18.4258 20.375 19.168C20.5156 19.9102 20.5859 20.4688 20.5859 20.8438C20.5859 21.2266 20.4414 21.418 20.1523 21.418C19.8633 21.418 19.7188 21.2266 19.7188 20.8438ZM11.9141 5.23438L9.14844 5.31641C8.01562 5.31641 7.27734 5.14844 6.93359 4.8125L6.6875 5.03516C7 5.33984 7.15625 5.73047 7.15625 6.20703V6.99219C7.15625 7.46094 7 7.85156 6.6875 8.16406L6.93359 8.39844C7.26953 8.05469 7.96484 7.88281 9.01953 7.88281L11.9844 7.98828C12.7734 7.98828 13.3828 7.88672 13.8125 7.68359C14.25 7.47266 14.4688 7.08984 14.4688 6.53516C14.4688 6.18359 14.3477 5.91016 14.1055 5.71484C13.8633 5.51172 13.5703 5.38281 13.2266 5.32812C12.8828 5.26562 12.4453 5.23438 11.9141 5.23438ZM24.1602 17.75L24.1953 19.6133C24.1953 19.9883 24.1367 20.2695 24.0195 20.457C23.9023 20.6523 23.7617 20.75 23.5977 20.75C23.2695 20.75 23.1055 20.4336 23.1055 19.8008C23.1055 19.168 23.1836 18.4648 23.3398 17.6914C23.4961 16.9258 23.6328 16.3984 23.75 16.1094L29.375 2.26953C29.4531 2.06641 29.4922 1.86719 29.4922 1.67188C29.4922 1.47656 29.4258 1.28516 29.293 1.09766L29.6211 0.886719C29.8477 1.22266 30.1992 1.39062 30.6758 1.39062H36.0664C36.5352 1.39062 36.8828 1.22266 37.1094 0.886719L37.4492 1.09766C37.3164 1.28516 37.25 1.46484 37.25 1.63672C37.25 1.80859 37.2969 2.01562 37.3906 2.25781L43.1797 16.1211C43.3594 16.5586 43.6367 16.9023 44.0117 17.1523L43.8711 17.375C43.4883 17.125 43.0625 17 42.5938 17H40.2969C40.3125 17.1719 40.3203 17.293 40.3203 17.3633C40.3203 17.6211 40.2148 17.75 40.0039 17.75C39.9102 17.75 39.8242 17.7109 39.7461 17.6328C39.6758 17.5625 39.6406 17.457 39.6406 17.3164C39.6406 17.1836 39.6484 17.0781 39.6641 17H38.2461C37.9023 17 37.6797 17.1875 37.5781 17.5625C37.4531 18.0234 37.3906 18.5508 37.3906 19.1445C37.3906 19.7461 37.4297 20.293 37.5078 20.7852C37.5859 21.2773 37.625 21.6133 37.625 21.793C37.625 21.9805 37.5781 22.1289 37.4844 22.2383C37.3984 22.3555 37.2891 22.4141 37.1562 22.4141C37.0234 22.4141 36.9102 22.3594 36.8164 22.25C36.7227 22.1406 36.6758 21.9883 36.6758 21.793C36.6758 21.5977 36.7227 21.2188 36.8164 20.6562C36.918 20.0938 36.9688 19.6719 36.9688 19.3906V16.0977C36.8906 15.8867 36.8516 15.6914 36.8516 15.5117C36.8516 15.332 36.9219 15.1406 37.0625 14.9375L36.7578 14.7148C36.5234 15.0508 36.1719 15.2188 35.7031 15.2188H30.8867C30.418 15.2188 30.0664 15.0547 29.832 14.7266L29.5273 14.9375C29.6758 15.1484 29.75 15.3438 29.75 15.5234C29.75 15.7031 29.7227 15.8945 29.668 16.0977V16.1094C29.5977 16.375 29.5625 16.5781 29.5625 16.7188C29.5625 16.8594 29.6406 17.043 29.7969 17.2695L29.4922 17.4922C29.2578 17.1641 28.9062 17 28.4375 17H24.1953C24.1719 17.1484 24.1602 17.3984 24.1602 17.75ZM32.0938 11.9727H34.332C34.8008 11.9727 35.2227 12.0977 35.5977 12.3477L35.75 12.125C35.3828 11.875 35.1172 11.5273 34.9531 11.082L33.4648 7.27344C33.293 6.82812 33.2031 6.375 33.1953 5.91406H33.043C33.0273 6.42969 32.9492 6.88281 32.8086 7.27344L31.4609 11.0703C31.2969 11.5234 31.0352 11.875 30.6758 12.125L30.8281 12.3594C31.1953 12.1016 31.6172 11.9727 32.0938 11.9727ZM39.6992 20.8789C39.6992 20.3398 39.8008 19.6641 40.0039 18.8516C40.2305 19.7891 40.3438 20.3984 40.3438 20.6797C40.3438 21.0938 40.2344 21.3008 40.0156 21.3008C39.8047 21.3008 39.6992 21.1602 39.6992 20.8789ZM52.3672 21.1484L52.4961 18.8516C52.4961 17.5391 52.332 16.8828 52.0039 16.8828C51.6758 16.8828 51.5117 17.2969 51.5117 18.125V18.4648C51.5117 18.8008 51.5859 19.3008 51.7344 19.9648C51.8906 20.6289 51.9688 21.1328 51.9688 21.4766C51.9688 22.0078 51.7695 22.2734 51.3711 22.2734C50.9805 22.2734 50.7852 22.0078 50.7852 21.4766C50.7852 21.1172 50.8672 20.5938 51.0312 19.9062C51.1953 19.2188 51.2773 18.6953 51.2773 18.3359L51.2539 13.5547C51.2539 13.3125 51.2852 13.125 51.3477 12.9922C51.418 12.8594 51.5586 12.7617 51.7695 12.6992L51.6523 12.2539C51.543 12.2852 51.4453 12.3008 51.3594 12.3008C51.2812 12.3008 51.1992 12.2734 51.1133 12.2188C51.0117 12.1484 50.8945 12.0078 50.7617 11.7969L44.8203 2.11719C44.5859 1.73438 44.2656 1.42188 43.8594 1.17969L43.9648 0.980469C44.3555 1.19922 44.7969 1.30859 45.2891 1.30859L50.0117 1.28516C50.4805 1.28516 50.8125 1.11719 51.0078 0.78125L51.3711 0.980469C51.2695 1.16797 51.2188 1.375 51.2188 1.60156C51.2188 1.82031 51.375 2.19922 51.6875 2.73828C52.0078 3.27734 52.3555 3.80078 52.7305 4.30859C53.1133 4.81641 53.4609 5.37891 53.7734 5.99609C54.0938 6.61328 54.2539 7.14844 54.2539 7.60156H54.5V7.50781C54.5 6.77344 55.0078 5.70312 56.0234 4.29688C57.0391 2.89062 57.5469 1.94922 57.5469 1.47266C57.5469 1.34766 57.4922 1.18359 57.3828 0.980469L57.7461 0.78125C57.9414 1.11719 58.2773 1.28516 58.7539 1.28516L63.1953 1.30859C63.6797 1.30859 64.1172 1.19922 64.5078 0.980469L64.6133 1.17969C64.1914 1.42969 63.8672 1.74219 63.6406 2.11719L57.6406 11.7969C57.4375 12.1328 57.2305 12.3008 57.0195 12.3008C56.9336 12.3008 56.8438 12.2852 56.75 12.2539L56.6094 12.6875C56.9844 12.8047 57.1719 13.1953 57.1719 13.8594L57.1016 15.4883C57.1016 16.2383 57.2656 16.7773 57.5938 17.1055L57.3477 17.3398C57.043 17.0352 56.6562 16.8828 56.1875 16.8828H53.4453C52.9453 16.8828 52.6953 17.5898 52.6953 19.0039L52.8711 21.1836C52.8711 21.457 52.7852 21.5938 52.6133 21.5938C52.4492 21.5938 52.3672 21.4453 52.3672 21.1484ZM72.0781 20.0703C72.0781 20.3281 71.9609 20.457 71.7266 20.457C71.6094 20.457 71.5156 20.4141 71.4453 20.3281C71.375 20.25 71.3398 20.0977 71.3398 19.8711C71.3398 19.6445 71.3945 19.1992 71.5039 18.5352C71.6133 17.8789 71.668 17.3047 71.668 16.8125C71.668 16.3125 71.5391 15.7695 71.2812 15.1836L65.4688 1.8125C65.2969 1.39062 65.0195 1.05078 64.6367 0.792969L64.7891 0.570312C65.1562 0.8125 65.5781 0.933594 66.0547 0.933594H70.1445C70.6211 0.933594 70.9648 0.769531 71.1758 0.441406L71.5156 0.652344C71.3828 0.824219 71.3164 0.992188 71.3164 1.15625C71.3164 1.3125 71.4219 1.67188 71.6328 2.23438C71.8516 2.79688 72.1367 3.50391 72.4883 4.35547C72.8398 5.19922 73.168 5.98438 73.4727 6.71094C73.7852 7.4375 74.1133 8.19922 74.457 8.99609C74.8008 9.79297 74.9922 10.2383 75.0312 10.332C75.0703 10.2383 75.2617 9.79297 75.6055 8.99609C75.9492 8.19922 76.2734 7.4375 76.5781 6.71094C76.8906 5.98438 77.2227 5.19531 77.5742 4.34375C78.3555 2.46094 78.7461 1.41406 78.7461 1.20312C78.7461 0.992188 78.6836 0.808594 78.5586 0.652344L78.8867 0.441406C79.0977 0.769531 79.4414 0.933594 79.918 0.933594H84.0195C84.5039 0.933594 84.9297 0.8125 85.2969 0.570312L85.4375 0.792969C85.0547 1.05078 84.7773 1.39062 84.6055 1.8125L78.7109 15.7578C78.6094 15.9922 78.5586 16.5547 78.5586 17.4453C78.5586 18.3359 78.6484 19.3242 78.8281 20.4102C79.0156 21.5039 79.1094 22.3164 79.1094 22.8477C79.1094 23.6055 78.8359 23.9844 78.2891 23.9844C77.75 23.9844 77.4805 23.6094 77.4805 22.8594C77.4805 22.3516 77.5781 21.5977 77.7734 20.5977C77.9688 19.6055 78.0664 18.6953 78.0664 17.8672C78.0664 17.0391 77.9648 16.625 77.7617 16.625H72.0898C71.9648 16.625 71.9023 16.9141 71.9023 17.4922L72.0781 20.0703ZM92.8906 23.3164L93.0195 20.1992C93.0195 19.1914 92.9805 18.5547 92.9023 18.2891C92.832 18.0234 92.7578 17.7891 92.6797 17.5859C92.6016 17.3828 92.5 17.2188 92.375 17.0938C92.25 16.9688 92.1016 16.8516 91.9297 16.7422C91.6016 16.5234 91.0859 16.4141 90.3828 16.4141C89.6797 16.4141 89.0859 16.6992 88.6016 17.2695C88.125 17.8398 87.8867 18.5234 87.8867 19.3203C87.8867 19.6172 87.9453 20.0586 88.0625 20.6445C88.1797 21.2383 88.2383 21.6836 88.2383 21.9805C88.2383 22.543 88.0391 22.8242 87.6406 22.8242C87.2422 22.8242 87.043 22.5508 87.043 22.0039C87.043 21.6992 87.1016 21.2422 87.2188 20.6328C87.3438 20.0234 87.4062 19.5625 87.4062 19.25L87.4883 16.1094V2.33984C87.4883 1.85547 87.3359 1.46484 87.0312 1.16797L87.2656 0.921875C87.5938 1.23438 87.9844 1.39062 88.4375 1.39062H92.6797C93.1484 1.39062 93.5391 1.23438 93.8516 0.921875L94.0859 1.16797C93.7812 1.47266 93.6289 1.86328 93.6289 2.33984V16.0508C93.6289 16.457 93.5859 17.1562 93.5 18.1484C93.4141 19.1484 93.3867 19.918 93.418 20.457H93.4062C93.6953 21.7539 93.8398 22.7422 93.8398 23.4219C93.8398 24.1016 93.7109 24.4414 93.4531 24.4414C93.0781 24.4414 92.8906 24.0664 92.8906 23.3164ZM96.6992 17.75L96.7344 19.6133C96.7344 19.9883 96.6758 20.2695 96.5586 20.457C96.4414 20.6523 96.3008 20.75 96.1367 20.75C95.8086 20.75 95.6445 20.4336 95.6445 19.8008C95.6445 19.168 95.7227 18.4648 95.8789 17.6914C96.0352 16.9258 96.1719 16.3984 96.2891 16.1094L101.914 2.26953C101.992 2.06641 102.031 1.86719 102.031 1.67188C102.031 1.47656 101.965 1.28516 101.832 1.09766L102.16 0.886719C102.387 1.22266 102.738 1.39062 103.215 1.39062H108.605C109.074 1.39062 109.422 1.22266 109.648 0.886719L109.988 1.09766C109.855 1.28516 109.789 1.46484 109.789 1.63672C109.789 1.80859 109.836 2.01562 109.93 2.25781L115.719 16.1211C115.898 16.5586 116.176 16.9023 116.551 17.1523L116.41 17.375C116.027 17.125 115.602 17 115.133 17H112.836C112.852 17.1719 112.859 17.293 112.859 17.3633C112.859 17.6211 112.754 17.75 112.543 17.75C112.449 17.75 112.363 17.7109 112.285 17.6328C112.215 17.5625 112.18 17.457 112.18 17.3164C112.18 17.1836 112.188 17.0781 112.203 17H110.785C110.441 17 110.219 17.1875 110.117 17.5625C109.992 18.0234 109.93 18.5508 109.93 19.1445C109.93 19.7461 109.969 20.293 110.047 20.7852C110.125 21.2773 110.164 21.6133 110.164 21.793C110.164 21.9805 110.117 22.1289 110.023 22.2383C109.938 22.3555 109.828 22.4141 109.695 22.4141C109.562 22.4141 109.449 22.3594 109.355 22.25C109.262 22.1406 109.215 21.9883 109.215 21.793C109.215 21.5977 109.262 21.2188 109.355 20.6562C109.457 20.0938 109.508 19.6719 109.508 19.3906V16.0977C109.43 15.8867 109.391 15.6914 109.391 15.5117C109.391 15.332 109.461 15.1406 109.602 14.9375L109.297 14.7148C109.062 15.0508 108.711 15.2188 108.242 15.2188H103.426C102.957 15.2188 102.605 15.0547 102.371 14.7266L102.066 14.9375C102.215 15.1484 102.289 15.3438 102.289 15.5234C102.289 15.7031 102.262 15.8945 102.207 16.0977V16.1094C102.137 16.375 102.102 16.5781 102.102 16.7188C102.102 16.8594 102.18 17.043 102.336 17.2695L102.031 17.4922C101.797 17.1641 101.445 17 100.977 17H96.7344C96.7109 17.1484 96.6992 17.3984 96.6992 17.75ZM104.633 11.9727H106.871C107.34 11.9727 107.762 12.0977 108.137 12.3477L108.289 12.125C107.922 11.875 107.656 11.5273 107.492 11.082L106.004 7.27344C105.832 6.82812 105.742 6.375 105.734 5.91406H105.582C105.566 6.42969 105.488 6.88281 105.348 7.27344L104 11.0703C103.836 11.5234 103.574 11.875 103.215 12.125L103.367 12.3594C103.734 12.1016 104.156 11.9727 104.633 11.9727ZM112.238 20.8789C112.238 20.3398 112.34 19.6641 112.543 18.8516C112.77 19.7891 112.883 20.3984 112.883 20.6797C112.883 21.0938 112.773 21.3008 112.555 21.3008C112.344 21.3008 112.238 21.1602 112.238 20.8789ZM137.188 20.8438L137.445 18.418C137.445 17.4336 137.043 16.6836 136.238 16.168C135.441 15.6445 134.602 15.4141 133.719 15.4766C132.836 15.5312 132.219 15.8281 131.867 16.3672C131.688 16.625 131.598 16.9297 131.598 17.2812L131.539 20.4219C131.539 20.8516 131.605 21.4883 131.738 22.332C131.871 23.1836 131.938 23.8242 131.938 24.2539C131.938 25.0117 131.723 25.3906 131.293 25.3906C130.863 25.3906 130.648 25.0234 130.648 24.2891C130.648 23.8047 130.719 23.1094 130.859 22.2031C131 21.2969 131.078 20.6094 131.094 20.1406C131.117 19.6719 131.129 18.6719 131.129 17.1406C131.129 16.7344 131.004 16.2656 130.754 15.7344C130.504 15.2031 130.109 14.4727 129.57 13.543C129.031 12.6133 128.59 11.793 128.246 11.082L127.895 10.8828C127.707 11.2266 127.375 11.3984 126.898 11.3984L125.914 11.4336C125.242 11.4336 124.738 11.2695 124.402 10.9414L124.156 11.1758C124.18 11.4648 124.191 12.082 124.191 13.0273L124.18 15.8984C124.18 16.7578 124.195 17.3906 124.227 17.7969L124.449 19.5195C124.449 19.8398 124.34 20 124.121 20C123.902 20 123.793 19.8516 123.793 19.5547L123.98 18.1016C123.98 17.75 123.875 17.4688 123.664 17.2578C123.461 17.0547 123.191 16.9531 122.855 16.9531C122.527 16.9531 122.234 17.0977 121.977 17.3867C121.727 17.6836 121.602 18.0664 121.602 18.5352C121.602 19.0039 121.688 19.6367 121.859 20.4336C122.031 21.2383 122.117 21.8164 122.117 22.168C122.117 22.9023 121.855 23.2695 121.332 23.2695C120.809 23.2695 120.547 22.9102 120.547 22.1914C120.547 21.8555 120.621 21.2695 120.77 20.4336C120.926 19.5977 121.004 18.9336 121.004 18.4414C121.004 17.9492 120.891 17.543 120.664 17.2227C120.438 16.9102 120.18 16.7539 119.891 16.7539C119.602 16.7539 119.355 16.8516 119.152 17.0469C118.949 17.25 118.848 17.5 118.848 17.7969L119.164 20.5742C119.164 21.0508 118.988 21.2891 118.637 21.2891C118.285 21.2891 118.109 21.0469 118.109 20.5625C118.109 20.2812 118.184 19.7891 118.332 19.0859C118.48 18.3906 118.551 17.8477 118.543 17.457C118.535 17.0664 118.531 12.0117 118.531 2.29297C118.531 1.80859 118.383 1.42188 118.086 1.13281L118.32 0.898438C118.625 1.19531 119.012 1.34375 119.48 1.34375H129.98C131.621 1.34375 132.723 1.39453 133.285 1.49609C133.855 1.58984 134.352 1.69141 134.773 1.80078C135.203 1.91016 135.562 2.04688 135.852 2.21094C136.148 2.36719 136.445 2.56641 136.742 2.80859C137.047 3.04297 137.289 3.3125 137.469 3.61719C137.883 4.3125 138.09 5.05078 138.09 5.83203C138.09 6.61328 138.027 7.25391 137.902 7.75391C137.785 8.24609 137.586 8.71094 137.305 9.14844C136.695 10.0938 135.625 10.5664 134.094 10.5664L134 10.8359C134.492 11.0312 134.82 11.3008 134.984 11.6445C135.672 13.1445 136.18 14.0977 136.508 14.5039C136.836 14.9023 137.141 15.2227 137.422 15.4648C137.703 15.707 138.105 15.9531 138.629 16.2031C139.152 16.4531 139.469 16.6172 139.578 16.6953C139.688 16.7656 139.742 16.8242 139.742 16.8711C139.742 17.6523 139.848 18.6562 140.059 19.8828C140.27 21.1094 140.375 21.8984 140.375 22.25C140.375 22.6016 140.359 22.8555 140.328 23.0117C140.305 23.168 140.246 23.3203 140.152 23.4688C140.059 23.625 139.922 23.7031 139.742 23.7031C139.562 23.7031 139.426 23.5742 139.332 23.3164C139.246 23.0586 139.203 22.7422 139.203 22.3672C139.203 21.9922 139.254 21.3203 139.355 20.3516C139.457 19.3906 139.508 18.6641 139.508 18.1719C139.508 17.1953 139.191 16.707 138.559 16.707C138.246 16.707 138.012 16.7617 137.855 16.8711C137.707 16.9805 137.633 17.2031 137.633 17.5391C137.633 17.8828 137.703 18.4258 137.844 19.168C137.984 19.9102 138.055 20.4688 138.055 20.8438C138.055 21.2266 137.91 21.418 137.621 21.418C137.332 21.418 137.188 21.2266 137.188 20.8438ZM129.383 5.23438L126.617 5.31641C125.484 5.31641 124.746 5.14844 124.402 4.8125L124.156 5.03516C124.469 5.33984 124.625 5.73047 124.625 6.20703V6.99219C124.625 7.46094 124.469 7.85156 124.156 8.16406L124.402 8.39844C124.738 8.05469 125.434 7.88281 126.488 7.88281L129.453 7.98828C130.242 7.98828 130.852 7.88672 131.281 7.68359C131.719 7.47266 131.938 7.08984 131.938 6.53516C131.938 6.18359 131.816 5.91016 131.574 5.71484C131.332 5.51172 131.039 5.38281 130.695 5.32812C130.352 5.26562 129.914 5.23438 129.383 5.23438Z" fill="#333333"/>
</svg>
