<svg width="211" height="38" viewBox="0 0 211 38" fill="none" xmlns="http://www.w3.org/2000/svg">
<path d="M29.0781 30.7656L29.4648 27.127C29.4648 25.6504 28.8613 24.5254 27.6543 23.752C26.459 22.9668 25.1992 22.6211 23.875 22.7148C22.5508 22.7969 21.625 23.2422 21.0977 24.0508C20.8281 24.4375 20.6934 24.8945 20.6934 25.4219L20.6055 30.1328C20.6055 30.7773 20.7051 31.7324 20.9043 32.998C21.1035 34.2754 21.2031 35.2363 21.2031 35.8809C21.2031 37.0176 20.8809 37.5859 20.2363 37.5859C19.5918 37.5859 19.2695 37.0352 19.2695 35.9336C19.2695 35.207 19.375 34.1641 19.5859 32.8047C19.7969 31.4453 19.9141 30.4141 19.9375 29.7109C19.9727 29.0078 19.9902 27.5078 19.9902 25.2109C19.9902 24.6016 19.8027 23.8984 19.4277 23.1016C19.0527 22.3047 18.4609 21.209 17.6523 19.8145C16.8438 18.4199 16.1816 17.1895 15.666 16.123L15.1387 15.8242C14.8574 16.3398 14.3594 16.5977 13.6445 16.5977L12.168 16.6504C11.1602 16.6504 10.4043 16.4043 9.90039 15.9121L9.53125 16.2637C9.56641 16.6973 9.58398 17.623 9.58398 19.041L9.56641 23.3477C9.56641 24.6367 9.58984 25.5859 9.63672 26.1953L9.9707 28.7793C9.9707 29.2598 9.80664 29.5 9.47852 29.5C9.15039 29.5 8.98633 29.2773 8.98633 28.832L9.26758 26.6523C9.26758 26.125 9.10938 25.7031 8.79297 25.3867C8.48828 25.082 8.08398 24.9297 7.58008 24.9297C7.08789 24.9297 6.64844 25.1465 6.26172 25.5801C5.88672 26.0254 5.69922 26.5996 5.69922 27.3027C5.69922 28.0059 5.82812 28.9551 6.08594 30.1504C6.34375 31.3574 6.47266 32.2246 6.47266 32.752C6.47266 33.8535 6.08008 34.4043 5.29492 34.4043C4.50977 34.4043 4.11719 33.8652 4.11719 32.7871C4.11719 32.2832 4.22852 31.4043 4.45117 30.1504C4.68555 28.8965 4.80273 27.9004 4.80273 27.1621C4.80273 26.4238 4.63281 25.8145 4.29297 25.334C3.95312 24.8652 3.56641 24.6309 3.13281 24.6309C2.69922 24.6309 2.33008 24.7773 2.02539 25.0703C1.7207 25.375 1.56836 25.75 1.56836 26.1953L2.04297 30.3613C2.04297 31.0762 1.7793 31.4336 1.25195 31.4336C0.724609 31.4336 0.460938 31.0703 0.460938 30.3438C0.460938 29.9219 0.572266 29.1836 0.794922 28.1289C1.01758 27.0859 1.12305 26.2715 1.11133 25.6855C1.09961 25.0996 1.09375 17.5176 1.09375 2.93945C1.09375 2.21289 0.871094 1.63281 0.425781 1.19922L0.777344 0.847656C1.23438 1.29297 1.81445 1.51562 2.51758 1.51562H18.2676C20.7285 1.51562 22.3809 1.5918 23.2246 1.74414C24.0801 1.88477 24.8242 2.03711 25.457 2.20117C26.1016 2.36523 26.6406 2.57031 27.0742 2.81641C27.5195 3.05078 27.9648 3.34961 28.4102 3.71289C28.8672 4.06445 29.2305 4.46875 29.5 4.92578C30.1211 5.96875 30.4316 7.07617 30.4316 8.24805C30.4316 9.41992 30.3379 10.3809 30.1504 11.1309C29.9746 11.8691 29.6758 12.5664 29.2539 13.2227C28.3398 14.6406 26.7344 15.3496 24.4375 15.3496L24.2969 15.7539C25.0352 16.0469 25.5273 16.4512 25.7734 16.9668C26.8047 19.2168 27.5664 20.6465 28.0586 21.2559C28.5508 21.8535 29.0078 22.334 29.4297 22.6973C29.8516 23.0605 30.4551 23.4297 31.2402 23.8047C32.0254 24.1797 32.5 24.4258 32.6641 24.543C32.8281 24.6484 32.9102 24.7363 32.9102 24.8066C32.9102 25.9785 33.0684 27.4844 33.3848 29.3242C33.7012 31.1641 33.8594 32.3477 33.8594 32.875C33.8594 33.4023 33.8359 33.7832 33.7891 34.0176C33.7539 34.252 33.666 34.4805 33.5254 34.7031C33.3848 34.9375 33.1797 35.0547 32.9102 35.0547C32.6406 35.0547 32.4355 34.8613 32.2949 34.4746C32.166 34.0879 32.1016 33.6133 32.1016 33.0508C32.1016 32.4883 32.1777 31.4805 32.3301 30.0273C32.4824 28.5859 32.5586 27.4961 32.5586 26.7578C32.5586 25.293 32.084 24.5605 31.1348 24.5605C30.666 24.5605 30.3145 24.6426 30.0801 24.8066C29.8574 24.9707 29.7461 25.3047 29.7461 25.8086C29.7461 26.3242 29.8516 27.1387 30.0625 28.252C30.2734 29.3652 30.3789 30.2031 30.3789 30.7656C30.3789 31.3398 30.1621 31.627 29.7285 31.627C29.2949 31.627 29.0781 31.3398 29.0781 30.7656ZM17.3711 7.35156L13.2227 7.47461C11.5234 7.47461 10.416 7.22266 9.90039 6.71875L9.53125 7.05273C10 7.50977 10.2344 8.0957 10.2344 8.81055V9.98828C10.2344 10.6914 10 11.2773 9.53125 11.7461L9.90039 12.0977C10.4043 11.582 11.4473 11.3242 13.0293 11.3242L17.4766 11.4824C18.6602 11.4824 19.5742 11.3301 20.2188 11.0254C20.875 10.709 21.2031 10.1348 21.2031 9.30273C21.2031 8.77539 21.0215 8.36523 20.6582 8.07227C20.2949 7.76758 19.8555 7.57422 19.3398 7.49219C18.8242 7.39844 18.168 7.35156 17.3711 7.35156ZM35.7402 26.125L35.793 28.9199C35.793 29.4824 35.7051 29.9043 35.5293 30.1855C35.3535 30.4785 35.1426 30.625 34.8965 30.625C34.4043 30.625 34.1582 30.1504 34.1582 29.2012C34.1582 28.252 34.2754 27.1973 34.5098 26.0371C34.7441 24.8887 34.9492 24.0977 35.125 23.6641L43.5625 2.9043C43.6797 2.59961 43.7383 2.30078 43.7383 2.00781C43.7383 1.71484 43.6387 1.42773 43.4395 1.14648L43.9316 0.830078C44.2715 1.33398 44.7988 1.58594 45.5137 1.58594H53.5996C54.3027 1.58594 54.8242 1.33398 55.1641 0.830078L55.6738 1.14648C55.4746 1.42773 55.375 1.69727 55.375 1.95508C55.375 2.21289 55.4453 2.52344 55.5859 2.88672L64.2695 23.6816C64.5391 24.3379 64.9551 24.8535 65.5176 25.2285L65.3066 25.5625C64.7324 25.1875 64.0938 25 63.3906 25H59.9453C59.9688 25.2578 59.9805 25.4395 59.9805 25.5449C59.9805 25.9316 59.8223 26.125 59.5059 26.125C59.3652 26.125 59.2363 26.0664 59.1191 25.9492C59.0137 25.8438 58.9609 25.6855 58.9609 25.4746C58.9609 25.2754 58.9727 25.1172 58.9961 25H56.8691C56.3535 25 56.0195 25.2812 55.8672 25.8438C55.6797 26.5352 55.5859 27.3262 55.5859 28.2168C55.5859 29.1191 55.6445 29.9395 55.7617 30.6777C55.8789 31.416 55.9375 31.9199 55.9375 32.1895C55.9375 32.4707 55.8672 32.6934 55.7266 32.8574C55.5977 33.0332 55.4336 33.1211 55.2344 33.1211C55.0352 33.1211 54.8652 33.0391 54.7246 32.875C54.584 32.7109 54.5137 32.4824 54.5137 32.1895C54.5137 31.8965 54.584 31.3281 54.7246 30.4844C54.877 29.6406 54.9531 29.0078 54.9531 28.5859V23.6465C54.8359 23.3301 54.7773 23.0371 54.7773 22.7676C54.7773 22.498 54.8828 22.2109 55.0938 21.9062L54.6367 21.5723C54.2852 22.0762 53.7578 22.3281 53.0547 22.3281H45.8301C45.127 22.3281 44.5996 22.082 44.248 21.5898L43.791 21.9062C44.0137 22.2227 44.125 22.5156 44.125 22.7852C44.125 23.0547 44.084 23.3418 44.002 23.6465V23.6641C43.8965 24.0625 43.8438 24.3672 43.8438 24.5781C43.8438 24.7891 43.9609 25.0645 44.1953 25.4043L43.7383 25.7383C43.3867 25.2461 42.8594 25 42.1562 25H35.793C35.7578 25.2227 35.7402 25.5977 35.7402 26.125ZM47.6406 17.459H50.998C51.7012 17.459 52.334 17.6465 52.8965 18.0215L53.125 17.6875C52.5742 17.3125 52.1758 16.791 51.9297 16.123L49.6973 10.4102C49.4395 9.74219 49.3047 9.0625 49.293 8.37109H49.0645C49.041 9.14453 48.9238 9.82422 48.7129 10.4102L46.6914 16.1055C46.4453 16.7852 46.0527 17.3125 45.5137 17.6875L45.7422 18.0391C46.293 17.6523 46.9258 17.459 47.6406 17.459ZM59.0488 30.8184C59.0488 30.0098 59.2012 28.9961 59.5059 27.7773C59.8457 29.1836 60.0156 30.0977 60.0156 30.5195C60.0156 31.1406 59.8516 31.4512 59.5234 31.4512C59.207 31.4512 59.0488 31.2402 59.0488 30.8184ZM78.0508 31.2227L78.2441 27.7773C78.2441 25.8086 77.998 24.8242 77.5059 24.8242C77.0137 24.8242 76.7676 25.4453 76.7676 26.6875V27.1973C76.7676 27.7012 76.8789 28.4512 77.1016 29.4473C77.3359 30.4434 77.4531 31.1992 77.4531 31.7148C77.4531 32.5117 77.1543 32.9102 76.5566 32.9102C75.9707 32.9102 75.6777 32.5117 75.6777 31.7148C75.6777 31.1758 75.8008 30.3906 76.0469 29.3594C76.293 28.3281 76.416 27.543 76.416 27.0039L76.3809 19.832C76.3809 19.4688 76.4277 19.1875 76.5215 18.9883C76.627 18.7891 76.8379 18.6426 77.1543 18.5488L76.9785 17.8809C76.8145 17.9277 76.668 17.9512 76.5391 17.9512C76.4219 17.9512 76.2988 17.9102 76.1699 17.8281C76.0176 17.7227 75.8418 17.5117 75.6426 17.1953L66.7305 2.67578C66.3789 2.10156 65.8984 1.63281 65.2891 1.26953L65.4473 0.970703C66.0332 1.29883 66.6953 1.46289 67.4336 1.46289L74.5176 1.42773C75.2207 1.42773 75.7188 1.17578 76.0117 0.671875L76.5566 0.970703C76.4043 1.25195 76.3281 1.5625 76.3281 1.90234C76.3281 2.23047 76.5625 2.79883 77.0312 3.60742C77.5117 4.41602 78.0332 5.20117 78.5957 5.96289C79.1699 6.72461 79.6914 7.56836 80.1602 8.49414C80.6406 9.41992 80.8809 10.2227 80.8809 10.9023H81.25V10.7617C81.25 9.66016 82.0117 8.05469 83.5352 5.94531C85.0586 3.83594 85.8203 2.42383 85.8203 1.70898C85.8203 1.52148 85.7383 1.27539 85.5742 0.970703L86.1191 0.671875C86.4121 1.17578 86.916 1.42773 87.6309 1.42773L94.293 1.46289C95.0195 1.46289 95.6758 1.29883 96.2617 0.970703L96.4199 1.26953C95.7871 1.64453 95.3008 2.11328 94.9609 2.67578L85.9609 17.1953C85.6562 17.6992 85.3457 17.9512 85.0293 17.9512C84.9004 17.9512 84.7656 17.9277 84.625 17.8809L84.4141 18.5312C84.9766 18.707 85.2578 19.293 85.2578 20.2891L85.1523 22.7324C85.1523 23.8574 85.3984 24.666 85.8906 25.1582L85.5215 25.5098C85.0645 25.0527 84.4844 24.8242 83.7812 24.8242H79.668C78.918 24.8242 78.543 25.8848 78.543 28.0059L78.8066 31.2754C78.8066 31.6855 78.6777 31.8906 78.4199 31.8906C78.1738 31.8906 78.0508 31.668 78.0508 31.2227ZM107.617 29.6055C107.617 29.9922 107.441 30.1855 107.09 30.1855C106.914 30.1855 106.773 30.1211 106.668 29.9922C106.562 29.875 106.51 29.6465 106.51 29.3066C106.51 28.9668 106.592 28.2988 106.756 27.3027C106.92 26.3184 107.002 25.457 107.002 24.7188C107.002 23.9688 106.809 23.1543 106.422 22.2754L97.7031 2.21875C97.4453 1.58594 97.0293 1.07617 96.4551 0.689453L96.6836 0.355469C97.2344 0.71875 97.8672 0.900391 98.582 0.900391H104.717C105.432 0.900391 105.947 0.654297 106.264 0.162109L106.773 0.478516C106.574 0.736328 106.475 0.988281 106.475 1.23438C106.475 1.46875 106.633 2.00781 106.949 2.85156C107.277 3.69531 107.705 4.75586 108.232 6.0332C108.76 7.29883 109.252 8.47656 109.709 9.56641C110.178 10.6562 110.67 11.7988 111.186 12.9941C111.701 14.1895 111.988 14.8574 112.047 14.998C112.105 14.8574 112.393 14.1895 112.908 12.9941C113.424 11.7988 113.91 10.6562 114.367 9.56641C114.836 8.47656 115.334 7.29297 115.861 6.01562C117.033 3.19141 117.619 1.62109 117.619 1.30469C117.619 0.988281 117.525 0.712891 117.338 0.478516L117.83 0.162109C118.146 0.654297 118.662 0.900391 119.377 0.900391H125.529C126.256 0.900391 126.895 0.71875 127.445 0.355469L127.656 0.689453C127.082 1.07617 126.666 1.58594 126.408 2.21875L117.566 23.1367C117.414 23.4883 117.338 24.332 117.338 25.668C117.338 27.0039 117.473 28.4863 117.742 30.1152C118.023 31.7559 118.164 32.9746 118.164 33.7715C118.164 34.9082 117.754 35.4766 116.934 35.4766C116.125 35.4766 115.721 34.9141 115.721 33.7891C115.721 33.0273 115.867 31.8965 116.16 30.3965C116.453 28.9082 116.6 27.543 116.6 26.3008C116.6 25.0586 116.447 24.4375 116.143 24.4375H107.635C107.447 24.4375 107.354 24.8711 107.354 25.7383L107.617 29.6055ZM138.836 34.4746L139.029 29.7988C139.029 28.2871 138.971 27.332 138.854 26.9336C138.748 26.5352 138.637 26.1836 138.52 25.8789C138.402 25.5742 138.25 25.3281 138.062 25.1406C137.875 24.9531 137.652 24.7773 137.395 24.6133C136.902 24.2852 136.129 24.1211 135.074 24.1211C134.02 24.1211 133.129 24.5488 132.402 25.4043C131.688 26.2598 131.33 27.2852 131.33 28.4805C131.33 28.9258 131.418 29.5879 131.594 30.4668C131.77 31.3574 131.857 32.0254 131.857 32.4707C131.857 33.3145 131.559 33.7363 130.961 33.7363C130.363 33.7363 130.064 33.3262 130.064 32.5059C130.064 32.0488 130.152 31.3633 130.328 30.4492C130.516 29.5352 130.609 28.8438 130.609 28.375L130.732 23.6641V3.00977C130.732 2.2832 130.504 1.69727 130.047 1.25195L130.398 0.882812C130.891 1.35156 131.477 1.58594 132.156 1.58594H138.52C139.223 1.58594 139.809 1.35156 140.277 0.882812L140.629 1.25195C140.172 1.70898 139.943 2.29492 139.943 3.00977V23.5762C139.943 24.1855 139.879 25.2344 139.75 26.7227C139.621 28.2227 139.58 29.377 139.627 30.1855H139.609C140.043 32.1309 140.26 33.6133 140.26 34.6328C140.26 35.6523 140.066 36.1621 139.68 36.1621C139.117 36.1621 138.836 35.5996 138.836 34.4746ZM144.549 26.125L144.602 28.9199C144.602 29.4824 144.514 29.9043 144.338 30.1855C144.162 30.4785 143.951 30.625 143.705 30.625C143.213 30.625 142.967 30.1504 142.967 29.2012C142.967 28.252 143.084 27.1973 143.318 26.0371C143.553 24.8887 143.758 24.0977 143.934 23.6641L152.371 2.9043C152.488 2.59961 152.547 2.30078 152.547 2.00781C152.547 1.71484 152.447 1.42773 152.248 1.14648L152.74 0.830078C153.08 1.33398 153.607 1.58594 154.322 1.58594H162.408C163.111 1.58594 163.633 1.33398 163.973 0.830078L164.482 1.14648C164.283 1.42773 164.184 1.69727 164.184 1.95508C164.184 2.21289 164.254 2.52344 164.395 2.88672L173.078 23.6816C173.348 24.3379 173.764 24.8535 174.326 25.2285L174.115 25.5625C173.541 25.1875 172.902 25 172.199 25H168.754C168.777 25.2578 168.789 25.4395 168.789 25.5449C168.789 25.9316 168.631 26.125 168.314 26.125C168.174 26.125 168.045 26.0664 167.928 25.9492C167.822 25.8438 167.77 25.6855 167.77 25.4746C167.77 25.2754 167.781 25.1172 167.805 25H165.678C165.162 25 164.828 25.2812 164.676 25.8438C164.488 26.5352 164.395 27.3262 164.395 28.2168C164.395 29.1191 164.453 29.9395 164.57 30.6777C164.688 31.416 164.746 31.9199 164.746 32.1895C164.746 32.4707 164.676 32.6934 164.535 32.8574C164.406 33.0332 164.242 33.1211 164.043 33.1211C163.844 33.1211 163.674 33.0391 163.533 32.875C163.393 32.7109 163.322 32.4824 163.322 32.1895C163.322 31.8965 163.393 31.3281 163.533 30.4844C163.686 29.6406 163.762 29.0078 163.762 28.5859V23.6465C163.645 23.3301 163.586 23.0371 163.586 22.7676C163.586 22.498 163.691 22.2109 163.902 21.9062L163.445 21.5723C163.094 22.0762 162.566 22.3281 161.863 22.3281H154.639C153.936 22.3281 153.408 22.082 153.057 21.5898L152.6 21.9062C152.822 22.2227 152.934 22.5156 152.934 22.7852C152.934 23.0547 152.893 23.3418 152.811 23.6465V23.6641C152.705 24.0625 152.652 24.3672 152.652 24.5781C152.652 24.7891 152.77 25.0645 153.004 25.4043L152.547 25.7383C152.195 25.2461 151.668 25 150.965 25H144.602C144.566 25.2227 144.549 25.5977 144.549 26.125ZM156.449 17.459H159.807C160.51 17.459 161.143 17.6465 161.705 18.0215L161.934 17.6875C161.383 17.3125 160.984 16.791 160.738 16.123L158.506 10.4102C158.248 9.74219 158.113 9.0625 158.102 8.37109H157.873C157.85 9.14453 157.732 9.82422 157.521 10.4102L155.5 16.1055C155.254 16.7852 154.861 17.3125 154.322 17.6875L154.551 18.0391C155.102 17.6523 155.734 17.459 156.449 17.459ZM167.857 30.8184C167.857 30.0098 168.01 28.9961 168.314 27.7773C168.654 29.1836 168.824 30.0977 168.824 30.5195C168.824 31.1406 168.66 31.4512 168.332 31.4512C168.016 31.4512 167.857 31.2402 167.857 30.8184ZM205.281 30.7656L205.668 27.127C205.668 25.6504 205.064 24.5254 203.857 23.752C202.662 22.9668 201.402 22.6211 200.078 22.7148C198.754 22.7969 197.828 23.2422 197.301 24.0508C197.031 24.4375 196.896 24.8945 196.896 25.4219L196.809 30.1328C196.809 30.7773 196.908 31.7324 197.107 32.998C197.307 34.2754 197.406 35.2363 197.406 35.8809C197.406 37.0176 197.084 37.5859 196.439 37.5859C195.795 37.5859 195.473 37.0352 195.473 35.9336C195.473 35.207 195.578 34.1641 195.789 32.8047C196 31.4453 196.117 30.4141 196.141 29.7109C196.176 29.0078 196.193 27.5078 196.193 25.2109C196.193 24.6016 196.006 23.8984 195.631 23.1016C195.256 22.3047 194.664 21.209 193.855 19.8145C193.047 18.4199 192.385 17.1895 191.869 16.123L191.342 15.8242C191.061 16.3398 190.562 16.5977 189.848 16.5977L188.371 16.6504C187.363 16.6504 186.607 16.4043 186.104 15.9121L185.734 16.2637C185.77 16.6973 185.787 17.623 185.787 19.041L185.77 23.3477C185.77 24.6367 185.793 25.5859 185.84 26.1953L186.174 28.7793C186.174 29.2598 186.01 29.5 185.682 29.5C185.354 29.5 185.189 29.2773 185.189 28.832L185.471 26.6523C185.471 26.125 185.312 25.7031 184.996 25.3867C184.691 25.082 184.287 24.9297 183.783 24.9297C183.291 24.9297 182.852 25.1465 182.465 25.5801C182.09 26.0254 181.902 26.5996 181.902 27.3027C181.902 28.0059 182.031 28.9551 182.289 30.1504C182.547 31.3574 182.676 32.2246 182.676 32.752C182.676 33.8535 182.283 34.4043 181.498 34.4043C180.713 34.4043 180.32 33.8652 180.32 32.7871C180.32 32.2832 180.432 31.4043 180.654 30.1504C180.889 28.8965 181.006 27.9004 181.006 27.1621C181.006 26.4238 180.836 25.8145 180.496 25.334C180.156 24.8652 179.77 24.6309 179.336 24.6309C178.902 24.6309 178.533 24.7773 178.229 25.0703C177.924 25.375 177.771 25.75 177.771 26.1953L178.246 30.3613C178.246 31.0762 177.982 31.4336 177.455 31.4336C176.928 31.4336 176.664 31.0703 176.664 30.3438C176.664 29.9219 176.775 29.1836 176.998 28.1289C177.221 27.0859 177.326 26.2715 177.314 25.6855C177.303 25.0996 177.297 17.5176 177.297 2.93945C177.297 2.21289 177.074 1.63281 176.629 1.19922L176.98 0.847656C177.438 1.29297 178.018 1.51562 178.721 1.51562H194.471C196.932 1.51562 198.584 1.5918 199.428 1.74414C200.283 1.88477 201.027 2.03711 201.66 2.20117C202.305 2.36523 202.844 2.57031 203.277 2.81641C203.723 3.05078 204.168 3.34961 204.613 3.71289C205.07 4.06445 205.434 4.46875 205.703 4.92578C206.324 5.96875 206.635 7.07617 206.635 8.24805C206.635 9.41992 206.541 10.3809 206.354 11.1309C206.178 11.8691 205.879 12.5664 205.457 13.2227C204.543 14.6406 202.938 15.3496 200.641 15.3496L200.5 15.7539C201.238 16.0469 201.73 16.4512 201.977 16.9668C203.008 19.2168 203.77 20.6465 204.262 21.2559C204.754 21.8535 205.211 22.334 205.633 22.6973C206.055 23.0605 206.658 23.4297 207.443 23.8047C208.229 24.1797 208.703 24.4258 208.867 24.543C209.031 24.6484 209.113 24.7363 209.113 24.8066C209.113 25.9785 209.271 27.4844 209.588 29.3242C209.904 31.1641 210.062 32.3477 210.062 32.875C210.062 33.4023 210.039 33.7832 209.992 34.0176C209.957 34.252 209.869 34.4805 209.729 34.7031C209.588 34.9375 209.383 35.0547 209.113 35.0547C208.844 35.0547 208.639 34.8613 208.498 34.4746C208.369 34.0879 208.305 33.6133 208.305 33.0508C208.305 32.4883 208.381 31.4805 208.533 30.0273C208.686 28.5859 208.762 27.4961 208.762 26.7578C208.762 25.293 208.287 24.5605 207.338 24.5605C206.869 24.5605 206.518 24.6426 206.283 24.8066C206.061 24.9707 205.949 25.3047 205.949 25.8086C205.949 26.3242 206.055 27.1387 206.266 28.252C206.477 29.3652 206.582 30.2031 206.582 30.7656C206.582 31.3398 206.365 31.627 205.932 31.627C205.498 31.627 205.281 31.3398 205.281 30.7656ZM193.574 7.35156L189.426 7.47461C187.727 7.47461 186.619 7.22266 186.104 6.71875L185.734 7.05273C186.203 7.50977 186.438 8.0957 186.438 8.81055V9.98828C186.438 10.6914 186.203 11.2773 185.734 11.7461L186.104 12.0977C186.607 11.582 187.65 11.3242 189.232 11.3242L193.68 11.4824C194.863 11.4824 195.777 11.3301 196.422 11.0254C197.078 10.709 197.406 10.1348 197.406 9.30273C197.406 8.77539 197.225 8.36523 196.861 8.07227C196.498 7.76758 196.059 7.57422 195.543 7.49219C195.027 7.39844 194.371 7.35156 193.574 7.35156Z" fill="white"/>
</svg>
